<svg xmlns="http://www.w3.org/2000/svg" xmlns:xlink="http://www.w3.org/1999/xlink" width="205.591" height="150.415" viewBox="0 0 154.193 112.811"><symbol id="a"><path d="M0 .033V0l.053.003H.15L.214 0v.033C.185.033.145.046.145.082c0 .012.005.025.009.037L.189.21c.004.009.004.019.019.019h.25C.47.229.471.218.475.209L.498.148.522.086C.524.079.529.071.529.063c0-.029-.052-.03-.08-.03V0h.274v.033H.7C.677.033.652.034.637.047.624.06.619.08.613.096.541.289.466.48.395.673.388.691.384.714.361.714.339.714.335.691.329.674.264.506.201.337.137.168L.118.116C.094.05.054.034 0 .033m.209.229.123.326.123-.326H.209z"/></symbol><use xlink:href="#a" transform="matrix(7.9701 0 0 -7.9701 6.265 49.859)"/><symbol id="b"><path d="M0 .683V.65l.036.001C.07.651.102.646.102.609L.101.59V.105C.101.039.043.033 0 .033V0l.066.003h.107L.236 0v.033C.191.033.134.041.134.108l.001.028.001.504C.142.62.152.6.16.58.237.4.312.215.383.035.388.022.393.001.411 0 .429 0 .434.021.44.034.512.217.588.4.664.582.672.603.685.627.69.648L.691.1.692.076C.692.038.658.032.625.032L.59.033V0l.074.003h.21v.03L.838.032C.804.032.772.037.772.074l.001.019v.513c0 .04.033.045.067.045L.874.65v.033H.701C.684.683.673.678.668.661L.657.635C.591.471.521.308.456.143.45.127.441.111.437.095.417.14.399.187.38.233L.216.635.206.66C.2.673.193.683.178.683H0z"/></symbol><use xlink:href="#b" transform="matrix(7.9701 0 0 -7.9701 73.698 11.73)"/><symbol id="c"><path d="M0 .684V.651l.037.001C.072.652.101.647.101.608v-.53C.101.038.068.033.034.033L0 .034V.001h.324L.39 0c.05 0 .101.007.146.029.058.03.109.087.109.154 0 .108-.109.162-.202.175.07.021.155.046.172.141l.001.016c0 .131-.167.17-.254.17L.296.684H0M.186.342h.146l.047.001.035-.002A.16.16 0 0 0 .545.185c0-.078-.066-.14-.14-.149C.39.034.375.034.36.034H.227C.205.034.186.036.186.071v.271m0 .028v.245c0 .03.016.036.039.036h.134C.426.651.504.628.518.53L.519.516C.519.415.419.37.334.37H.186z"/></symbol><use xlink:href="#c" transform="matrix(7.9701 0 0 -7.9701 142.597 95.224)"/><path stroke-width="1.594" stroke-linecap="round" stroke-miterlimit="10" fill="none" stroke="#369" d="M77.184 16.718 58.87 38.697"/><path d="M54.507 43.931c1.583-1.308 4.556-3.102 7.028-3.998l-4.362-3.636c-.437 2.593-1.665 5.84-2.666 7.634" fill="#369"/><symbol id="d"><path d="M.611 0c.016 0 .038 0 .038.023S.627.046.611.046H.038C.022.046 0 .046 0 .023S.022 0 .038 0h.573z"/></symbol><symbol id="e"><path d="M.814.241A.375.375 0 0 1 .671.015C.671 0 .685 0 .694 0c.011 0 .02 0 .023.013.026.111.09.195.211.236.008.002.016.005.016.015 0 .01-.009.013-.013.014a.307.307 0 0 0-.212.227C.714.525.714.528.694.528c-.009 0-.023 0-.023-.015A.352.352 0 0 1 .814.287H.038C.022.287 0 .287 0 .264S.022.241.038.241h.776z"/></symbol><use xlink:href="#d" transform="matrix(7.9701 0 0 -7.9701 48.285 26.607)" fill="#369"/><use xlink:href="#e" transform="matrix(7.9701 0 0 -7.9701 48.054 28.528)" fill="#369"/><symbol id="f"><path d="M.328.602h.093c.02 0 .032 0 .032.019 0 .014-.013.014-.03.014H.334C.35.725.36.782.37.827c.004.017.007.028.022.04C.405.878.413.88.424.88A.085.085 0 0 0 .468.869.12.12 0 0 1 .452.861.054.054 0 0 1 .423.814c0-.023.018-.037.04-.037.029 0 .056.025.056.06 0 .047-.048.071-.096.071C.389.908.326.892.294.8.285.777.285.775.258.635H.183c-.02 0-.032 0-.032-.019 0-.014.013-.014.03-.014h.071L.18.214C.161.113.146.028.093.028.09.028.069.028.05.04c.046.011.046.053.046.054 0 .023-.018.037-.04.037C.029.131 0 .108 0 .07 0 .028.043 0 .093 0c.061 0 .103.064.116.089C.245.155.268.28.27.29l.058.312z"/></symbol><use xlink:href="#f" transform="matrix(7.9701 0 0 -7.9701 49.783 35.576)" fill="#369"/><path stroke-width=".797" stroke-miterlimit="10" fill="none" stroke="#929292" d="M9.148 39.397C31.826 16.719 65.845 5.38 77.184 16.718c11.339 11.34 22.681 90.714 68.036 68.036"/><symbol id="g"><path d="M.412.207a.206.206 0 1 1-.412 0 .206.206 0 1 1 .412 0z"/></symbol><use xlink:href="#g" transform="matrix(7.9701 0 0 -7.9701 7.501 40.874)" fill="#929292"/><use xlink:href="#g" transform="matrix(7.9701 0 0 -7.9701 75.536 18.195)" fill="#929292"/><use xlink:href="#g" transform="matrix(7.9701 0 0 -7.9701 143.572 86.23)" fill="#929292"/><path stroke-width=".399" stroke-miterlimit="10" fill="none" stroke="#000" d="m77.184 16.718 3.769 6.03"/><path d="M82.854 25.79c-.395-1.008-.803-2.789-.845-4.172l-2.535 1.584c1.225.644 2.647 1.792 3.38 2.587"/><use xlink:href="#d" transform="matrix(7.9701 0 0 -7.9701 86.543 15.457)"/><use xlink:href="#e" transform="matrix(7.9701 0 0 -7.9701 86.312 17.378)"/><symbol id="h"><path d="M.294.693V.66C.362.66.37.653.37.604V.393a.179.179 0 0 1-.134.058A.232.232 0 0 1 0 .225C0 .102.1 0 .226 0c.059 0 .108.028.141.063V0l.152.01v.033C.451.043.443.05.443.099v.605L.294.693M.367.134c0-.018 0-.022-.015-.042A.15.15 0 0 0 .231.028a.13.13 0 0 0-.11.061.233.233 0 0 0-.032.135c0 .058.009.099.032.134a.145.145 0 0 0 .12.065.144.144 0 0 0 .126-.076V.134z"/></symbol><use xlink:href="#h" transform="matrix(7.9701 0 0 -7.9701 86.273 22.88)"/><symbol id="i"><path d="M.155.211.184.24c.07.07.117.134.142.171a.45.45 0 0 1 .078.222C.404.68.386.716.34.716.218.716.086.397.086.209L.087.187.018.123C.001.106 0 .105 0 .101 0 .095.007.085.015.085c.003 0 .005 0 .02.013l.055.05C.1.088.128 0 .212 0 .25 0 .288.019.315.037.33.048.38.085.38.096.38.102.375.113.365.113.36.113.357.11.349.103.308.066.26.028.214.028.16.028.15.098.15.161c0 .007 0 .025.002.045l.003.005M.16.259C.17.316.204.46.236.541.248.572.293.688.34.688.364.688.374.669.374.636c0-.012 0-.095-.079-.215C.242.34.166.265.16.259z"/></symbol><use xlink:href="#i" transform="matrix(7.9701 0 0 -7.9701 90.77 22.897)"/></svg>